<?xml version="1.0" encoding="utf-8"?>
<!-- Generator: Adobe Illustrator 17.1.0, SVG Export Plug-In . SVG Version: 6.00 Build 0)  -->
<!DOCTYPE svg PUBLIC "-//W3C//DTD SVG 1.1//EN" "http://www.w3.org/Graphics/SVG/1.1/DTD/svg11.dtd">
<svg version="1.1" id="Layer_1" xmlns="http://www.w3.org/2000/svg" xmlns:xlink="http://www.w3.org/1999/xlink" x="0px" y="0px"
	 viewBox="22 212 770 170" enable-background="new 22 212 770 170" xml:space="preserve">
<g id="Layer_1_1_">
	<g>
		<path fill="#F5FAF4" d="M151.8,265.8l3.6,2.4c0.4,1,0.7,2.1,0.9,3.1c0.1,1.1,0.2,2.3,0.2,3.6c0,3.8-0.9,8.1-2.7,13
			c-1.8,4.8-3.6,9.7-5.5,14.6c-1.8,4.9-2.8,9.2-2.8,12.8l0.6,1.4l1.4,0.6c1-0.2,2.1-0.9,3.3-2.1c1.2-1.2,2.1-1.9,2.9-2.1l1.5,1
			l0.3,1.3c0,4.1-2.5,7.5-7.6,10c-4.2,2.1-8.6,3.2-13.2,3.2c-1.3,0-2.3-1-3-2.9c-0.7-1.9-1-3.7-1-5.3c0-3.5,2.6-12.2,7.8-26.1
			c1.8-5,3.7-10,5.6-15c-1.3,1.5-5.2,6.7-11.6,15.4c-6.4,8.7-11.4,15.1-15,19.2c-5.7,6.5-10.1,10-13.1,10.7
			c-1.3-0.2-2.6-0.8-3.9-1.8s-2-2.1-2.2-3.3c1.2-7.4,2.9-15.4,5.2-24c1.9-7.1,4.3-15,7.2-23.5c-6.2,6.4-12.8,13.9-20,22.6
			c-8.2,10-15.2,19.1-20.8,27.5c-6.8,10.1-11.6,18.4-14.2,25.1c-0.7,0.4-1.7,0.9-3.1,1.3c-3.5,0.7-5.7,1.2-6.6,1.4l-1.8-2.6
			c0-2.9,5.9-12.1,17.8-27.8C73,305.2,84.5,291,96.7,277c12.9-14.8,20.6-22.5,23.2-23.2l2.9,2.4c0.7,2.9,1.5,5.8,2.3,8.7
			c0,1.5-1.8,7.9-5.3,19.4c-2.4,7.5-4.7,15-6.9,22.4c3.7-4.6,7.4-9.3,11.1-13.9c6-7.4,11.1-13.2,15.1-17.4
			C144.7,269.6,148.9,266.3,151.8,265.8z"/>
		<path fill="#F5FAF4" d="M185.7,290.7c0,1-1.5,4.5-4.6,10.6c-3.1,6.1-4.6,10.8-4.6,14.2c0,1.1,0.2,2,0.6,2.6c0.4,0.6,1,0.9,2,0.9
			s2.4-0.6,4.1-1.7c1.7-1.1,2.8-1.7,3.2-1.7c1.2,0,1.9,0.6,1.9,1.9c0,2.1-1.5,4.1-4.6,6c-2.4,1.4-5,2.4-7.6,3.1
			c-0.8,0.1-2,0.6-3.5,1.4s-2.7,1.2-3.7,1.2c-1.9,0-3.5-0.8-4.8-2.3s-1.9-3.3-1.9-5.2c0-1.2,0.1-2.4,0.3-3.3c0.2-1,0.6-2.1,1.1-3.4
			l7.3-18.3c0.7-1.9,1.4-3.2,1.9-3.9c0.6-0.7,1.7-1.3,3.4-1.9s3.2-1.3,4.5-2.1c0.1-0.1,0.7-0.4,1.5-0.8c0.9-0.4,1.4-0.6,1.4-0.6
			c0.8,0,1.4,0.3,1.7,0.9C185.6,289,185.7,289.7,185.7,290.7z M173.8,282.1c0-0.5,0.2-1.1,0.5-1.7s0.7-1.1,1.2-1.7l1.7-2.5
			c0.4-0.7,1.7-1.4,4-2.3c2.3-0.8,4-1.3,5.1-1.3c2,0,3,1.1,3,3.2c0,0.6-0.2,1.3-0.5,2.1c-0.3,0.8-0.6,1.5-0.7,1.8
			c-0.7,1.6-1.2,2.6-1.6,3.1c-0.4,0.4-1.4,0.8-3,1.1s-3.1,0.6-4.3,0.8c-1.3,0.2-2.2,0.3-3,0.3s-1.4-0.3-1.8-0.9
			C174,283.6,173.8,282.9,173.8,282.1z"/>
		<path fill="#F5FAF4" d="M224,263.3l0.6,1.4c0,2.2-1.5,6.7-4.6,13.5c-3.1,6.8-6.1,13.5-9,20c-3.2,7.6-4.9,12.9-4.9,16.1
			c0,0.5,0.1,0.9,0.2,1.2c0.1,0.3,0.3,0.7,0.7,1.3l2.2,1c1.6,0,3.3-0.6,5-1.8c2.4-1.7,4.9-3.4,7.4-5.2l1.2,0.7l0.6,1.7
			c0,2.7-2.9,6.1-8.7,10c-5.8,4-10.1,6-13,6c-0.4,0-2.1-0.9-5.1-2.8c-2.9-1.9-4.4-3-4.4-3.5c0-5.5,1.3-11.8,4-18.9
			c2.4-5.8,4.9-11.6,7.3-17.4c2.7-6.8,4.1-12.3,4.1-16.8c0.5-0.8,2.8-2.2,6.9-4c4.1-1.9,6.9-2.9,8.5-3.1L224,263.3z"/>
		<path fill="#F5FAF4" d="M226.5,329.3c-1.5,0-2.7-0.9-3.5-2.6c-0.8-1.7-1.2-3.5-1.2-5.3c0-6,5.1-13.2,15.2-21.7
			c10.1-8.5,18.4-12.7,24.8-12.7c2.1,0,4.3,0.4,6.4,1.2c2.9,1.1,4.3,2.5,4.3,4.2c0,2.5-1.2,7.3-3.6,14.4c-2.4,7.1-3.6,12.7-3.6,16.6
			c0,0.7,0.2,1.6,0.6,2.7c0.4,1.1,0.6,2,0.7,2.6c-0.2,0.8-0.7,1.6-1.3,2.3c-0.7,0.7-1.4,1-2.2,1c-0.7,0-1.7-0.1-3.2-0.3
			c-1.5-0.2-2.5-0.3-3-0.3c-1.5,0-2.5-1.1-3-3.4c-0.5-2.3-0.8-5-0.8-8.2c0-0.9,0-1.7,0-2.4c0-0.7,0-1.4,0.1-2c-3,4-7,7.4-11.9,9.9
			C236.4,328,231.5,329.3,226.5,329.3z M237.3,319.2c0,0.8,0.3,1.2,1,1.2c2.8,0,7.5-3.7,14.1-11c6.6-7.3,9.9-12.4,9.9-15.2
			c0-0.5-0.4-0.8-1.2-0.8c-3.2,0-7.9,3.4-14.3,10.3C240.5,310.6,237.3,315.8,237.3,319.2z"/>
		<path fill="#F5FAF4" d="M425,327.1c0,0.2,0.1,0.6,0.3,1.1c0.2,0.5,0.4,1,0.6,1.4c0.6,0.2,1.2,0.4,1.8,0.7c0.6,0.2,1.2,0.4,1.6,0.6
			c6.2,0,14-3,23.3-8.9c6-3.8,10.3-6.3,12.9-7.5l1.4,0.6l0.7,1.4c-1,3.6-5.1,7.5-12.3,11.7c-5.9,3.5-13.1,6.7-21.6,9.8
			c-7.2,2.6-13.1,4.4-17.8,5.2l-1.5-0.7c-1-1.7-1.8-2.9-2.2-3.7c-0.9-1.5-1.3-2.9-1.3-4.2c0-7.3,1.4-15.4,4.2-24
			c2.3-7.2,5.7-15.1,10.1-23.7c3.1-6,7.2-13.2,12.2-21.6c-3.8,0-9.6-0.3-17.2-0.8s-13.4-0.8-17.2-0.8c-6.6,0-13.7,1.1-21.4,3.2
			c-10.3,2.9-15.4,6.7-15.4,11.6c0,2.7,1.1,4.9,3.3,6.6c2.6,1.3,5.3,2.5,8,3.7c0.2,0.6,0.5,1.3,0.7,2c0.3,0.8,0.4,1.3,0.4,1.7
			c0,0.7-0.2,1.6-0.6,2.6s-0.8,1.9-1.2,2.7l-4.1,1.9c-4.4,0-7.9-2.1-10.5-6.3c-2.2-3.6-3.3-7.8-3.3-12.5c0-3.3,1.1-6.1,3.3-8.3
			c0.7-0.7,2.1-1.9,4.4-3.7c8.8-7,15.4-11.4,19.6-13.3c6-2.6,13.9-4,23.8-4c6,0,12.1,0.2,18.1,0.5s12.4,0.7,19.2,1
			c6.8,0.3,12.4,0.5,16.9,0.5c0.3,0,0.6,0.1,1,0.3s0.6,0.4,0.7,0.4l1.2,2.3c-1,3.7-2.9,6.8-5.7,9c-0.7,0.1-1.5,0.1-2.1,0.2
			c-0.7,0-1.5,0.1-2.5,0.1s-2.4,0-4.3-0.1s-3.3-0.1-4.3-0.1c-6,9.3-11.2,19.2-15.4,29.5C427.6,307.8,425,318.5,425,327.1z"/>
		<path fill="#F5FAF4" d="M486.1,324.2c-1.8,1.1-3.7,2.2-5.5,3.3c-0.9,0.7-1.6,1.2-2.2,1.4c-0.6,0.2-1.1,0.3-1.7,0.3
			c-1.2,0-2.5-0.8-4-2.5c-1.5-1.7-2.3-3.1-2.3-4.2c0-2.6,1.4-8.3,4.2-17.3c2.8-8.9,5-14.2,6.6-15.8c0.5-0.5,2-1.5,4.4-2.8
			c2.4-1.4,4-2,4.6-2c0.9,0,1.8,0.9,2.6,2.6c0.3,0.6,0.8,1.9,1.5,4c-3.2,7.6-6.4,15.3-9.6,22.8c0,1.1,0.4,1.7,1.3,1.7
			c1.4,0,3.5-2.4,6.4-7.1c2.6-4.4,5.3-8.8,8-13.2c3.3-4.7,6.2-7.1,8.8-7.1c1,0,1.8,0.8,2.4,2.3c0.7,1.5,1,2.9,1,4.1
			c0,2.1-0.3,4.8-1,8c-1.5,7.2-2.2,11.7-2.2,13.5c0,0.7,0.2,1.7,0.5,3c0.3,1.3,0.5,2.2,0.6,2.7c-0.6,1.4-1.9,3-4.1,4.8
			c-2.1,1.8-3.9,2.7-5.3,2.7c-0.7,0-1.6-0.6-2.7-1.8c-1.1-1.2-1.6-2.2-1.6-3c0-2.4,0.2-4.8,0.6-7.4s0.7-5.1,1.1-7.6
			c-1.9,2.5-3.8,5-5.7,7.5C490.3,320.4,488,322.8,486.1,324.2z"/>
		<path fill="#F5FAF4" d="M530.9,314.4c0,1.4,0.4,2.5,1.3,3.4c0.9,0.9,2.1,1.3,3.5,1.3c1.3,0,2.8-0.3,4.5-0.9c2.9-1,4.3-1.5,4.4-1.5
			l1.5,0.8l0.7,1.5c-1,2.9-3.6,5.3-8,7.4c-3.9,1.8-7.5,2.8-10.9,2.8c-3.2,0-5.8-1.2-7.8-3.7s-3-5.4-3-8.8c0-1.2,0.7-3.5,2-6.7
			c1-2.4,1.9-4.7,3-7.1c-0.7,0-1.5,0-2.2,0c-0.9-0.1-1.5-0.6-1.9-1.3c0.4-1.4,1.5-2.8,3.5-4.2c2.7-1.9,4.2-3.1,4.6-3.5
			c0.3-0.4,0.6-0.9,0.9-1.5c0.3-0.6,0.5-1,0.7-1.3c1.2-2.5,2.3-4.9,3.4-7.2c2.3-4.6,3.9-7.2,4.9-7.8c0.3-0.1,1-0.4,2.2-0.7
			c1.1-0.3,2-0.6,2.6-0.9c1.1-0.6,1.7-0.9,1.9-1c0.7-0.3,1.4-0.4,2.1-0.4c1.1,0,1.8,0.5,2.2,1.5s0.6,2.2,0.6,3.6
			c0,0.4-0.3,1.1-0.8,2s-1,1.7-1.4,2.4l-5.5,10.7c1.5,0,2.8,0.1,3.9,0.2c1.1,0.1,2.1,0.4,3,0.8l0.6,1.7c0,1.5-0.9,3.1-2.6,4.8
			c-1.7,1.7-3.4,2.5-4.9,2.5h-5.2c-1.3,2.7-2.3,5-2.8,6.7C531.2,311.6,530.9,313.1,530.9,314.4z"/>
		<path fill="#F5FAF4" d="M579.3,283.1c1.5,0,3.4,1.4,5.6,4.3c2.2,2.9,3.3,5.1,3.3,6.8c0,4.9-0.6,9.7-1.7,14.4
			c-1.1,4.7-4.6,9.3-10.5,13.8c-5.9,4.6-11.3,6.8-16.2,6.8c-2.6,0-4.9-0.7-6.9-2.2c-2.4-1.7-3.5-3.8-3.5-6.3c0-2.2,0.3-4.9,1-7.9
			c0.7-3.1,1.6-5.4,2.6-7.1c2.2-3.3,4.9-6.6,8.2-9.9c4.1-4.2,7.5-6.6,10.3-7.3c0.5-1.3,1.6-2.6,3.3-3.7
			C576.4,283.7,577.9,283.1,579.3,283.1z M563.8,317.8c0,1,0.1,1.8,0.4,2.6c0.3,0.8,0.8,1.2,1.5,1.2c2.1,0,4.3-1.1,6.5-3.2
			c2.9-2.8,5.3-6.5,7.3-11.2c-3.4-2.9-5.7-6.5-7.1-10.7c-1.9,2.4-3.8,5.8-5.8,10.3C564.8,311.4,563.8,315,563.8,317.8z"/>
		<path fill="#F5FAF4" d="M597.5,299.9c-1,0-1.8-0.2-2.4-0.5c-0.7-0.3-1-0.9-1-1.8c0-1.8,1.2-3.2,3.6-4.2c1.6-0.7,3.6-1.2,5.8-1.5
			c0.4,0,1.1-0.3,2.1-0.9s1.8-0.9,2.4-0.9c1.2,0,2.1,0.6,2.4,1.9c0.4,1.3,0.6,2.7,0.6,4.4c0,1.8-0.3,4.1-0.8,6.8
			c-0.6,2.7-0.9,4.2-0.9,4.6l0.4,0.7c0.2-0.1,0.8-1,1.8-2.4c2.4-3.7,3.7-5.7,4-6c-0.3-0.8-0.5-1.6-0.7-2.4c-0.1-0.8-0.2-1.7-0.2-2.8
			c0-2.8,0.4-4.9,1.1-6.2c0.7-1.4,2.3-2.7,4.6-4.1c1-0.7,1.8-1.2,2.4-1.5c1.2-0.7,2.1-1.1,2.4-1.1c1,0,1.9,0.9,2.9,2.6
			c1,1.8,1.5,3.2,1.5,4.3c0,0.4-0.5,1.5-1.4,3.3c-1,1.8-1.4,3.4-1.4,4.6c0,0.9,0.4,1.8,1.3,2.8c0.8,1,1.3,2.6,1.3,4.7
			c0,1-0.9,1.9-2.7,2.7s-3.3,1.3-4.4,1.3c-0.7,0-1.3-0.3-1.9-0.9c-0.6-0.6-1.2-1.4-1.7-2.3c-3.5,6-6.2,10.8-8.3,14.2
			c-4,6.5-7.8,9.8-11.6,9.8c-1.2,0-2.6-0.9-4.3-2.8c-1.7-1.8-2.5-3.3-2.5-4.4c1.2-1.3,2.2-2.4,2.8-3.1c2-2.4,3.2-4.1,3.6-5.2
			c0.4-1.1,0.7-2.5,0.9-4.1c0.2-1.6,0.3-3.1,0.3-4.5l-0.1-5h-1.9V299.9z"/>
		<path fill="#F5FAF4" d="M652.2,290.7c0,1-1.5,4.5-4.6,10.6c-3.1,6.1-4.6,10.8-4.6,14.2c0,1.1,0.2,2,0.6,2.6c0.4,0.6,1,0.9,2,0.9
			s2.4-0.6,4.1-1.7c1.7-1.1,2.8-1.7,3.2-1.7c1.2,0,1.9,0.6,1.9,1.9c0,2.1-1.5,4.1-4.6,6c-2.4,1.4-5,2.4-7.6,3.1
			c-0.8,0.1-2,0.6-3.5,1.4s-2.7,1.2-3.7,1.2c-1.9,0-3.5-0.8-4.8-2.3s-1.9-3.3-1.9-5.2c0-1.2,0.1-2.4,0.3-3.3c0.2-1,0.6-2.1,1.1-3.4
			l7.3-18.3c0.7-1.9,1.4-3.2,1.9-3.9c0.6-0.7,1.7-1.3,3.4-1.9s3.2-1.3,4.5-2.1c0.1-0.1,0.7-0.4,1.5-0.8c0.9-0.4,1.4-0.6,1.4-0.6
			c0.8,0,1.4,0.3,1.7,0.9C652.1,289,652.2,289.7,652.2,290.7z M640.3,282.1c0-0.5,0.2-1.1,0.5-1.7s0.7-1.1,1.2-1.7l1.7-2.5
			c0.4-0.7,1.7-1.4,4-2.3c2.3-0.8,4-1.3,5.1-1.3c2,0,3,1.1,3,3.2c0,0.6-0.2,1.3-0.5,2.1c-0.3,0.8-0.6,1.5-0.7,1.8
			c-0.7,1.6-1.2,2.6-1.6,3.1c-0.4,0.4-1.4,0.8-3,1.1s-3.1,0.6-4.3,0.8c-1.3,0.2-2.2,0.3-3,0.3s-1.4-0.3-1.8-0.9
			C640.5,283.6,640.3,282.9,640.3,282.1z"/>
		<path fill="#F5FAF4" d="M660.9,329.3c-1.5,0-2.7-0.9-3.5-2.6c-0.8-1.7-1.2-3.5-1.2-5.3c0-6,5.1-13.2,15.2-21.7
			c10.1-8.5,18.4-12.7,24.8-12.7c2.1,0,4.3,0.4,6.4,1.2c2.9,1.1,4.3,2.5,4.3,4.2c0,2.5-1.2,7.3-3.6,14.4c-2.4,7.1-3.6,12.7-3.6,16.6
			c0,0.7,0.2,1.6,0.6,2.7c0.4,1.1,0.6,2,0.7,2.6c-0.2,0.8-0.7,1.6-1.3,2.3c-0.7,0.7-1.4,1-2.2,1c-0.7,0-1.7-0.1-3.2-0.3
			c-1.5-0.2-2.5-0.3-3-0.3c-1.5,0-2.5-1.1-3-3.4c-0.5-2.3-0.8-5-0.8-8.2c0-0.9,0-1.7,0-2.4c0-0.7,0-1.4,0.1-2c-3,4-7,7.4-11.9,9.9
			C670.8,328,665.8,329.3,660.9,329.3z M671.7,319.2c0,0.8,0.3,1.2,1,1.2c2.8,0,7.5-3.7,14.1-11s9.9-12.4,9.9-15.2
			c0-0.5-0.4-0.8-1.2-0.8c-3.2,0-7.9,3.4-14.3,10.3C674.9,310.6,671.7,315.8,671.7,319.2z"/>
		<path fill="#F5FAF4" d="M742.1,263.3l0.6,1.4c0,2.2-1.5,6.7-4.6,13.5c-3.1,6.8-6.1,13.5-9,20c-3.2,7.6-4.9,12.9-4.9,16.1
			c0,0.5,0.1,0.9,0.2,1.2c0.1,0.3,0.3,0.7,0.7,1.3l2.2,1c1.6,0,3.3-0.6,5-1.8c2.4-1.7,4.9-3.4,7.4-5.2l1.2,0.7l0.6,1.7
			c0,2.7-2.9,6.1-8.7,10c-5.8,4-10.1,6-13,6c-0.4,0-2.1-0.9-5.1-2.8c-2.9-1.9-4.4-3-4.4-3.5c0-5.5,1.3-11.8,4-18.9
			c2.4-5.8,4.9-11.6,7.3-17.4c2.7-6.8,4.1-12.3,4.1-16.8c0.5-0.8,2.8-2.2,6.9-4c4.1-1.9,6.9-2.9,8.5-3.1L742.1,263.3z"/>
		<path fill="#F5FAF4" d="M763.8,296.4c1.9,3.2,3.6,6.1,5.1,8.9c1.5,2.8,2.3,5.3,2.3,7.7c0,4.8-2.5,8.8-7.5,12
			c-4.4,2.9-9.2,4.3-14.2,4.3c-2.4,0-4.4-0.3-6.2-1c-2.6-1-3.9-2.4-3.9-4.3c0-1.8,0.9-3.9,2.8-6.3c1.9-2.4,3.7-3.6,5.3-3.6
			c1.5,0,3,1.3,4.5,3.9s2.8,3.9,4,3.9c0.9,0,1.3-0.6,1.3-1.8c0-4.4-1.3-8.5-3.9-12.3c-2.6-3.8-3.9-6.3-3.9-7.5
			c0-2.6,2.5-6.1,7.4-10.3c5-4.2,8.9-6.3,11.7-6.3c1.1,0,2.2,0.3,3.3,0.9c1.1,0.6,1.7,1.4,1.7,2.4c0,2.3-0.2,4.2-0.7,5.6
			c-0.7,2.4-1.9,3.5-3.6,3.5c-1.1,0-2-0.2-2.8-0.6c-0.7-0.4-1.5-1-2.3-1.9C764,294.6,763.8,295.5,763.8,296.4z"/>
	</g>
</g>
</svg>
